<svg xmlns="http://www.w3.org/2000/svg" viewBox="0 0 205.94 326.17"><defs><style>.a{fill:#231f20;}.b{fill:none;stroke:#231f20;stroke-miterlimit:10;stroke-width:3px;}.c{fill:#fff;}</style></defs><title>alpine_logo</title><polygon class="a" points="205.94 263 185.6 170.33 163.6 181.33 143.94 103.33 120.27 149.67 99.27 68 81.27 141.33 59.94 113.33 46.83 164.21 30.27 145.33 0.9 261.67 0.9 0 205.94 0 205.94 263"/><path class="a" d="M1117.69,1612.67l-5-19.55h2.67l2.32,9.89c.58,2.44,1.1,4.87,1.45,6.76h.06c.32-1.94.93-4.26,1.6-6.79l2.61-9.86h2.64l2.38,9.92c.55,2.32,1.07,4.64,1.36,6.7h.06c.41-2.15,1-4.32,1.57-6.76l2.58-9.86h2.58l-5.54,19.55h-2.64l-2.47-10.18a59,59,0,0,1-1.28-6.38h-.06a61.1,61.1,0,0,1-1.51,6.38l-2.78,10.18Z" transform="translate(-1112.73 -1321.67)"/><path class="a" d="M1149.16,1603.5h-7.6v7H1150v2.12h-11v-19.55h10.56v2.12h-8v6.18h7.6Z" transform="translate(-1112.73 -1321.67)"/><path class="a" d="M1153,1609.59a8.94,8.94,0,0,0,4.52,1.28c2.58,0,4.09-1.36,4.09-3.33s-1-2.87-3.68-3.89c-3.19-1.13-5.16-2.78-5.16-5.54,0-3,2.52-5.31,6.32-5.31a8.88,8.88,0,0,1,4.32,1l-.7,2.06a7.79,7.79,0,0,0-3.71-.93c-2.67,0-3.68,1.6-3.68,2.93,0,1.83,1.19,2.73,3.89,3.77,3.31,1.28,5,2.87,5,5.74s-2.23,5.63-6.85,5.63a10.1,10.1,0,0,1-5-1.25Z" transform="translate(-1112.73 -1321.67)"/><path class="a" d="M1171.31,1595.26h-5.95v-2.15h14.47v2.15h-6v17.4h-2.55Z" transform="translate(-1112.73 -1321.67)"/><path class="a" d="M1204.64,1604.08c-.15-2.73-.32-6-.29-8.44h-.09c-.67,2.29-1.48,4.73-2.47,7.43l-3.45,9.49h-1.91l-3.16-9.31c-.93-2.75-1.71-5.28-2.26-7.6h-.06c-.06,2.44-.2,5.71-.38,8.64l-.52,8.38h-2.41l1.36-19.55h3.22l3.34,9.46c.81,2.41,1.48,4.55,2,6.58h.09c.49-2,1.19-4.12,2.06-6.58l3.48-9.46h3.22l1.22,19.55h-2.47Z" transform="translate(-1112.73 -1321.67)"/><path class="a" d="M1214,1593.12v19.55h-2.52v-19.55Z" transform="translate(-1112.73 -1321.67)"/><path class="a" d="M1218.41,1593.38a36.23,36.23,0,0,1,5.37-.41c3.63,0,6.21.84,7.92,2.44a9,9,0,0,1,2.76,7,10.34,10.34,0,0,1-2.81,7.6c-1.83,1.83-4.84,2.81-8.64,2.81a40.87,40.87,0,0,1-4.58-.23Zm2.52,17.29a15.91,15.91,0,0,0,2.55.15c5.4,0,8.33-3,8.33-8.3,0-4.61-2.58-7.54-7.92-7.54a14.38,14.38,0,0,0-3,.26Z" transform="translate(-1112.73 -1321.67)"/><path class="a" d="M1237.72,1593.12h2.52v17.43h8.35v2.12h-10.88Z" transform="translate(-1112.73 -1321.67)"/><path class="a" d="M1254.57,1606.52l-2,6.15h-2.61l6.64-19.55h3l6.67,19.55h-2.7l-2.09-6.15Zm6.41-2-1.91-5.63c-.44-1.28-.73-2.44-1-3.57H1258c-.29,1.16-.61,2.35-1,3.54l-1.91,5.66Z" transform="translate(-1112.73 -1321.67)"/><path class="a" d="M1269.16,1612.67v-19.55h2.76l6.27,9.89a55.21,55.21,0,0,1,3.51,6.35l.06,0c-.23-2.61-.29-5-.29-8v-8.18h2.38v19.55h-2.55l-6.21-9.92a62,62,0,0,1-3.65-6.53l-.09,0c.15,2.47.2,4.82.2,8.06v8.35Z" transform="translate(-1112.73 -1321.67)"/><path class="a" d="M1288.24,1593.38a36.23,36.23,0,0,1,5.37-.41c3.63,0,6.21.84,7.92,2.44a9,9,0,0,1,2.76,7,10.34,10.34,0,0,1-2.81,7.6c-1.83,1.83-4.84,2.81-8.64,2.81a40.87,40.87,0,0,1-4.58-.23Zm2.52,17.29a15.91,15.91,0,0,0,2.55.15c5.4,0,8.33-3,8.33-8.3,0-4.61-2.58-7.54-7.92-7.54a14.38,14.38,0,0,0-3,.26Z" transform="translate(-1112.73 -1321.67)"/><path class="a" d="M1307.2,1609.59a8.94,8.94,0,0,0,4.52,1.28c2.58,0,4.09-1.36,4.09-3.33s-1-2.87-3.68-3.89c-3.19-1.13-5.16-2.78-5.16-5.54,0-3,2.52-5.31,6.32-5.31a8.88,8.88,0,0,1,4.32,1l-.7,2.06a7.79,7.79,0,0,0-3.71-.93c-2.67,0-3.68,1.6-3.68,2.93,0,1.83,1.19,2.73,3.89,3.77,3.31,1.28,5,2.87,5,5.74s-2.23,5.63-6.85,5.63a10.1,10.1,0,0,1-5-1.25Z" transform="translate(-1112.73 -1321.67)"/><path class="a" d="M1114.5,1623.12H1117v17.43h8.35v2.12H1114.5Z" transform="translate(-1112.73 -1321.67)"/><path class="a" d="M1148.46,1623.12v19.55h-2.52v-19.55Z" transform="translate(-1112.73 -1321.67)"/><path class="a" d="M1187.09,1634.08c-.15-2.73-.32-6-.29-8.44h-.09c-.67,2.29-1.48,4.73-2.47,7.43l-3.45,9.49h-1.91l-3.16-9.31c-.93-2.75-1.71-5.28-2.26-7.6h-.06c-.06,2.44-.2,5.71-.38,8.64l-.52,8.38h-2.41l1.36-19.55h3.22l3.34,9.46c.81,2.41,1.48,4.55,2,6.58h.09c.49-2,1.19-4.12,2.06-6.58l3.48-9.46h3.22l1.22,19.55h-2.47Z" transform="translate(-1112.73 -1321.67)"/><path class="a" d="M1214.2,1623.12v19.55h-2.52v-19.55Z" transform="translate(-1112.73 -1321.67)"/><path class="a" d="M1238.88,1625.26h-5.95v-2.15h14.47v2.15h-6v17.4h-2.55Z" transform="translate(-1112.73 -1321.67)"/><path class="a" d="M1277.45,1633.5h-7.6v7h8.47v2.12h-11v-19.55h10.56v2.12h-8v6.18h7.6Z" transform="translate(-1112.73 -1321.67)"/><path class="a" d="M1299.34,1623.38a36.23,36.23,0,0,1,5.37-.41c3.63,0,6.21.84,7.92,2.44a9,9,0,0,1,2.76,7,10.34,10.34,0,0,1-2.81,7.6c-1.83,1.83-4.84,2.81-8.64,2.81a40.87,40.87,0,0,1-4.58-.23Zm2.52,17.29a15.91,15.91,0,0,0,2.55.15c5.4,0,8.33-3,8.33-8.3,0-4.61-2.58-7.54-7.92-7.54a14.38,14.38,0,0,0-3,.26Z" transform="translate(-1112.73 -1321.67)"/><line class="b" x1="0.9" y1="295.67" x2="205.94" y2="295.67"/><line class="b" x1="0.9" y1="324.67" x2="205.94" y2="324.67"/><path class="c" d="M1136.4,1351.82h-8.61l-1.2,4h-7.74l9.23-24.34h8.27l9.22,24.34h-7.94Zm-1.57-5.26-2.71-8.75-2.68,8.75Z" transform="translate(-1112.73 -1321.67)"/><path class="c" d="M1158.27,1331.5h7.58v18.34h11.84v6h-19.42Z" transform="translate(-1112.73 -1321.67)"/><path class="c" d="M1191.39,1331.5H1204q4.12,0,6.17,1.94a7.25,7.25,0,0,1,2.05,5.53,7.47,7.47,0,0,1-2.24,5.76q-2.24,2.08-6.82,2.08H1199v9h-7.62Zm7.62,10.38h1.86a4.81,4.81,0,0,0,3.08-.76,2.42,2.42,0,0,0,.89-1.93,2.69,2.69,0,0,0-.77-1.94,4,4,0,0,0-2.9-.8H1199Z" transform="translate(-1112.73 -1321.67)"/><path class="c" d="M1226.78,1331.5h7.6v24.34h-7.6Z" transform="translate(-1112.73 -1321.67)"/><path class="c" d="M1250.16,1331.5h7.08l9.24,13.46V1331.5h7.15v24.34h-7.15l-9.19-13.36v13.36h-7.13Z" transform="translate(-1112.73 -1321.67)"/><path class="c" d="M1288.94,1331.5h20.33v5.2h-12.73v3.87h11.8v5h-11.8v4.8h13.09v5.51h-20.7Z" transform="translate(-1112.73 -1321.67)"/></svg>